<?xml version="1.0" encoding="UTF-8"?>
<svg id="b" data-name="Layer 2" xmlns="http://www.w3.org/2000/svg" width="72.17" height="77" viewBox="0 0 72.17 77">
  <g id="c" data-name="Layer 1">
    <path d="M54.13,25.49c-.73,0-1.45.06-2.17.14.23-.51.45-1.02.64-1.56,3.33-9.39-1.59-19.7-10.99-23.03-9.39-3.33-19.7,1.59-23.03,10.99-1.63,4.6-1.27,9.41.61,13.52-.38-.02-.76-.06-1.15-.06C8.08,25.49,0,33.56,0,43.53s8.08,18.04,18.04,18.04c5.01,0,9.54-2.05,12.81-5.34v10.57h-8.76v10.2h27.72v-10.2h-8.76v-10.86c3.29,3.46,7.92,5.63,13.08,5.63,9.96,0,18.04-8.08,18.04-18.04s-8.08-18.04-18.04-18.04Z" style="fill: #000; stroke-width: 0px;"/>
  </g>
</svg>